<svg viewBox="0 0 200 200" xmlns="http://www.w3.org/2000/svg">
  <path fill="#008AFF" d="M35.9,-57.9C48.8,-54.6,63.3,-49.8,72.5,-39.9C81.7,-30,85.6,-15,84.2,-0.8C82.7,13.3,75.9,26.6,68.4,39.4C60.9,52.2,52.5,64.4,41,68.2C29.5,72,14.7,67.3,1,65.6C-12.8,63.9,-25.6,65.2,-38.3,62.1C-51.1,59,-63.8,51.6,-68.1,40.5C-72.4,29.5,-68.2,14.7,-68.8,-0.4C-69.4,-15.4,-74.8,-30.9,-70.3,-41.6C-65.8,-52.2,-51.4,-58.1,-38,-61.2C-24.6,-64.2,-12.3,-64.4,-0.4,-63.7C11.4,-62.9,22.9,-61.2,35.9,-57.9Z" transform="translate(100 100)" />
</svg>