<svg version="1.0" xmlns="http://www.w3.org/2000/svg"
 width="1280.000000pt" height="640.000000pt" viewBox="0 0 1280.000000 640.000000"
 preserveAspectRatio="xMidYMid meet">
<g transform="translate(0.000000,640.000000) scale(0.100000,-0.100000)"
fill="#000000" stroke="none">
<path d="M12575 4669 c-304 -120 -635 -241 -1015 -369 -798 -270 -1777 -517
-2630 -664 -517 -89 -764 -119 -1283 -156 -237 -17 -553 -40 -702 -51 -148
-10 -391 -24 -540 -30 -262 -11 -291 -10 -1010 30 -407 23 -807 46 -890 52
-169 11 -519 51 -652 74 -1013 176 -1547 279 -1818 350 -228 59 -1490 435
-1742 519 -156 51 -283 90 -283 86 0 -4 63 -29 140 -55 78 -27 143 -52 146
-57 6 -10 48 -259 214 -1273 56 -341 104 -630 108 -642 6 -19 97 78 661 703
360 398 657 724 660 724 6 0 394 -92 398 -94 1 -1 199 -705 405 -1446 67 -239
124 -438 127 -442 3 -3 264 351 579 788 495 686 577 794 599 794 31 0 356 -40
360 -44 4 -3 24 -51 455 -1091 159 -385 293 -703 297 -707 3 -4 220 379 481
851 l474 859 241 4 c218 5 241 3 255 -12 8 -10 229 -389 490 -843 261 -454
478 -823 481 -819 3 4 169 414 368 912 l361 905 193 28 c105 15 197 27 202 27
6 0 278 -353 605 -784 327 -432 597 -785 600 -785 3 -1 29 92 58 207 28 114
137 545 242 957 104 413 190 751 190 751 0 1 -26 -5 -57 -12 -139 -33 -71 -8
112 40 110 30 271 75 359 100 87 26 160 45 162 43 2 -1 -48 -20 -111 -41
l-115 -37 542 -562 c299 -309 606 -628 683 -708 77 -81 143 -147 146 -148 8
-1 7 -9 129 924 55 424 107 819 115 878 8 59 15 119 15 132 l0 24 -157 -55
c-87 -30 -161 -53 -166 -51 -4 1 63 28 150 60 277 102 582 222 583 230 0 12
-5 10 -215 -74z"/>
</g>
</svg>
